<?xml version="1.0" standalone="no"?><!DOCTYPE svg PUBLIC "-//W3C//DTD SVG 1.1//EN" "http://www.w3.org/Graphics/SVG/1.1/DTD/svg11.dtd"><svg t="1625920761201" class="icon" viewBox="0 0 1024 1024" version="1.1" xmlns="http://www.w3.org/2000/svg" p-id="5205" xmlns:xlink="http://www.w3.org/1999/xlink" width="200" height="200"><defs><style type="text/css"></style></defs><path d="M790.644364 437.76 229.282909 437.76c-12.869818 0-23.272727-10.426182-23.272727-23.272727s10.402909-23.272727 23.272727-23.272727l561.361455 0c12.869818 0 23.272727 10.426182 23.272727 23.272727S803.490909 437.76 790.644364 437.76z" p-id="5206"></path><path d="M561.152 632.785455 229.282909 632.785455c-12.869818 0-23.272727-10.426182-23.272727-23.272727s10.402909-23.272727 23.272727-23.272727l331.892364 0c12.869818 0 23.272727 10.426182 23.272727 23.272727S574.021818 632.785455 561.152 632.785455z" p-id="5207"></path><path d="M511.860364 46.545455c124.276364 0 241.175273 48.453818 329.192727 136.401455l1.931636 1.931636C929.675636 273.198545 977.454545 389.422545 977.454545 512.139636c0 49.757091-7.656727 98.141091-22.830545 143.988364-14.056727 43.031273-34.117818 83.525818-59.648 120.32l-8.308364 11.985455 0 14.568727L886.667636 977.454545 511.860364 977.454545c-124.136727 0-240.849455-48.337455-328.610909-136.122182l-8.913455-8.564364C91.834182 746.007273 46.545455 632.622545 46.545455 512.139636c0-124.672 48.314182-241.338182 136.052364-328.541091L191.790545 174.08C278.644364 91.741091 391.749818 46.545455 511.720727 46.545455L511.860364 46.545455M511.720727 0C370.408727 0 242.501818 57.320727 149.783273 150.039273l0 0.558545C56.994909 242.804364 0 370.757818 0 512.139636c0 141.405091 56.994909 269.335273 149.783273 362.100364L150.341818 874.24C242.525091 966.423273 370.478545 1024 511.860364 1024l381.090909 0 0.558545 0c21.783273 0 39.656727-17.873455 39.656727-39.354182l0-181.643636c27.927273-40.238545 50.269091-85.201455 65.675636-132.421818 16.477091-49.780364 25.134545-103.354182 25.134545-158.440727 0-140.311273-56.715636-267.077818-147.828364-359.866182l-2.234182-2.234182C781.172364 57.297455 653.218909 0 511.860364 0 511.813818 0 511.767273 0 511.720727 0L511.720727 0z" p-id="5208"></path></svg>