<?xml version="1.0" standalone="no"?><!DOCTYPE svg PUBLIC "-//W3C//DTD SVG 1.1//EN" "http://www.w3.org/Graphics/SVG/1.1/DTD/svg11.dtd"><svg t="1625557914725" class="icon" viewBox="0 0 1025 1024" version="1.1" xmlns="http://www.w3.org/2000/svg" p-id="1493" xmlns:xlink="http://www.w3.org/1999/xlink" width="200.1953125" height="200"><defs><style type="text/css"></style></defs><path d="M513.348815 1024c-68.939409 0-135.780662-13.488145-198.825252-40.164699-60.846522-25.677432-115.398575-62.545029-162.357303-109.403844-46.858815-46.858815-83.726412-101.510782-109.403844-162.357303-26.676554-62.944678-40.164699-129.885843-40.164699-198.825252s13.488145-135.780662 40.164699-198.825251c25.677432-60.846522 62.545029-115.398575 109.403844-162.357303 46.958728-46.858815 101.610694-83.6265 162.457215-109.403844 62.944678-26.676554 129.885843-40.164699 198.825252-40.164699s135.780662 13.488145 198.825251 40.164699c60.846522 25.677432 115.398575 62.545029 162.357303 109.403844 46.858815 46.858815 83.726412 101.510782 109.403844 162.357303 26.676554 62.944678 40.164699 129.885843 40.164699 198.825251s-13.488145 135.780662-40.164699 198.825252c-25.677432 60.846522-62.545029 115.398575-109.403844 162.357303-46.858815 46.858815-101.510782 83.726412-162.357303 109.403844-63.04459 26.676554-129.985755 40.164699-198.925163 40.164699z m0-945.568934c-239.789248 0-434.817836 195.028588-434.817836 434.817836s195.028588 434.817836 434.817836 434.817836S948.16665 753.03815 948.16665 513.248902c0-239.689336-195.028588-434.817836-434.817835-434.817836z" fill="#999999" p-id="1494"></path><path d="M427.624158 755.036394c-17.084984 0-34.169968-4.595961-49.656356-13.588058-30.373305-17.784369-48.45741-49.456532-48.457411-84.625622V364.579569c0-35.16909 18.084106-66.841253 48.457411-84.625622 30.373305-17.784369 66.841253-18.184018 97.514294-0.999122l261.470192 146.071617C768.524539 442.610986 787.30803 474.582886 787.30803 510.651185s-18.783491 68.040199-50.25583 85.724657L475.582008 742.447458c-15.08674 8.392624-31.472339 12.588936-47.95785 12.588936z m0.199825-412.737243c-5.195434 0-9.291833 1.898332-11.290077 3.097278-3.297102 1.898332-10.990341 7.693238-10.990341 19.18314v292.243145c0 11.489901 7.693238 17.184896 10.990341 19.18314 3.297102 1.898332 12.089375 5.794907 22.080593 0.199825l261.470192-146.071617c10.290955-5.694995 11.389989-15.486389 11.389989-19.382964s-1.099034-13.68797-11.389989-19.382965L438.514587 345.196605c-3.796663-2.198068-7.493414-2.897453-10.690604-2.897454z" fill="#999999" p-id="1495"></path></svg>