<?xml version="1.0" standalone="no"?><!DOCTYPE svg PUBLIC "-//W3C//DTD SVG 1.1//EN" "http://www.w3.org/Graphics/SVG/1.1/DTD/svg11.dtd"><svg t="1626245538775" class="icon" viewBox="0 0 1024 1024" version="1.1" xmlns="http://www.w3.org/2000/svg" p-id="2024" xmlns:xlink="http://www.w3.org/1999/xlink" width="32" height="32"><defs><style type="text/css"></style></defs><path d="M325.270588 81.317647C373.458824 30.117647 439.717647 0 512 0c72.282353 0 138.541176 30.117647 186.729412 81.317647 51.2 51.2 78.305882 120.470588 78.305882 192.752941 0 72.282353-27.105882 141.552941-78.305882 192.752941-15.058824 15.058824-30.117647 27.105882-45.176471 39.152942 54.211765 18.070588 117.458824 51.2 171.670588 102.4 90.352941 87.341176 135.529412 213.835294 135.529412 376.470588 0 18.070588-15.058824 36.141176-36.141176 36.141176s-33.129412-15.058824-33.129412-36.141176c-3.011765-210.823529-63.247059-316.235294-189.741177-385.505883-93.364706-54.211765-192.752941-48.188235-195.764705-48.188235h-9.035295c-66.258824-3.011765-129.505882-30.117647-174.682352-81.317647-51.2-51.2-78.305882-120.470588-78.305883-192.752941 3.011765-75.294118 30.117647-144.564706 81.317647-195.764706zM512 475.858824c108.423529 0 192.752941-90.352941 192.752941-201.788236S620.423529 69.270588 512 69.270588c-108.423529 0-192.752941 90.352941-192.752941 201.788236s84.329412 204.8 192.752941 204.8z m-292.141176 99.388235c18.070588-9.035294 39.152941-3.011765 48.188235 12.047059 9.035294 18.070588 3.011765 39.152941-12.047059 48.188235 0 0-30.117647 18.070588-60.235294 66.258823s-66.258824 138.541176-66.258824 286.117648c0 18.070588-15.058824 36.141176-36.141176 36.141176-18.070588 0-33.129412-15.058824-33.129412-36.141176 0-316.235294 153.6-409.6 159.62353-412.611765z" p-id="2025"></path></svg>