<?xml version="1.0" standalone="no"?><!DOCTYPE svg PUBLIC "-//W3C//DTD SVG 1.1//EN" "http://www.w3.org/Graphics/SVG/1.1/DTD/svg11.dtd"><svg t="1625568020101" class="icon" viewBox="0 0 1024 1024" version="1.1" xmlns="http://www.w3.org/2000/svg" p-id="2699" xmlns:xlink="http://www.w3.org/1999/xlink" width="200" height="200"><defs><style type="text/css"></style></defs><path d="M479.16 65.87h67.69c103.42-5.48 241.68 13.44 317.45 94.83 81.39 75.77 100.31 214.03 94.83 317.45v67.69c5.48 103.43-13.44 241.68-94.83 317.45-75.77 81.39-214.03 100.31-317.45 94.83h-67.69c-103.42 5.47-241.68-13.44-317.45-94.83-81.4-75.77-100.31-214.02-94.84-317.45v-67.69C61.4 374.73 80.31 236.47 161.7 160.7c75.78-81.39 214.03-100.31 317.46-94.83z" fill="#E25C38" p-id="2700"></path><path d="M391.65 390.65h255.48c52.91 0 95.8 42.89 95.8 95.8s-42.89 95.8-95.8 95.8H391.65c-52.91 0-95.8-42.89-95.8-95.8s42.89-95.8 95.8-95.8z" fill="#58150A" p-id="2701"></path><path d="M435.99 582.3c31.01-20.59 51.46-55.83 51.46-95.85 0-39.79-20.21-74.85-50.93-95.49-9.49-0.41-64.04-0.31-64.04-0.31L315 428.97l-19.16 25.55v38.32l6.39 38.32 25.55 25.55 31.93 12.77 31.93 12.77c0.01 0.01 32.99 0.28 44.35 0.05z m-63.5-140.55c24.69 0 44.71 20.02 44.71 44.71s-20.02 44.71-44.71 44.71-44.71-20.02-44.71-44.71c0-24.7 20.02-44.71 44.71-44.71zM602.78 582.3c-31.01-20.59-51.46-55.83-51.46-95.85 0-40.16 20.59-75.51 51.79-96.07 17.06-0.22 63.17 0.27 63.17 0.27l57.48 38.32 25.55 70.26-19.16 38.32-57.48 38.32-31.93 6.39s-27 0.17-37.96 0.04z m63.51-140.55c-24.69 0-44.71 20.02-44.71 44.71s20.02 44.71 44.71 44.71S711 511.15 711 486.46c0-24.7-20.02-44.71-44.71-44.71z" fill="#323232" p-id="2702"></path><path d="M372.49 582.26c-52.91 0-95.8-42.89-95.8-95.8s42.89-95.8 95.8-95.8 95.8 42.89 95.8 95.8-42.89 95.8-95.8 95.8z m65.69-120.71c-1.05 1.56-2.42 2.94-4.16 3.94l-5.53 3.19c-6.11 3.52-13.92 1.43-17.45-4.68-3.53-6.11-1.43-13.92 4.68-17.45l5.53-3.19c1.69-0.98 3.51-1.48 5.33-1.63-10.56-12.72-25.5-21.67-42.53-24.5 0.76 1.63 1.21 3.44 1.21 5.36v6.39c0 7.05-5.72 12.77-12.77 12.77s-12.77-5.72-12.77-12.77v-6.39c0-1.92 0.45-3.72 1.21-5.36-17.03 2.83-31.97 11.78-42.53 24.5 1.82 0.15 3.64 0.66 5.33 1.63l5.53 3.19c6.11 3.53 8.2 11.34 4.68 17.45-3.53 6.11-11.34 8.2-17.45 4.68l-5.53-3.19c-1.74-1-3.11-2.38-4.16-3.94a69.985 69.985 0 0 0-4.56 24.91c0 8.69 1.58 17 4.47 24.67 1.06-1.62 2.46-3.05 4.25-4.09l5.53-3.19c6.11-3.53 13.92-1.44 17.45 4.68 3.53 6.11 1.43 13.92-4.68 17.45l-5.53 3.2c-1.78 1.02-3.7 1.52-5.62 1.63 10.62 12.97 25.76 22.1 43.04 24.91-0.89-1.74-1.44-3.68-1.44-5.77v-6.39c0-7.05 5.72-12.77 12.77-12.77s12.77 5.72 12.77 12.77v6.39c0 2.08-0.54 4.01-1.42 5.75 17.3-2.82 32.51-11.87 43.12-24.88-1.95-0.1-3.9-0.59-5.71-1.64l-5.53-3.2c-6.11-3.53-8.2-11.34-4.68-17.45 3.53-6.11 11.34-8.2 17.45-4.68l5.53 3.19c1.77 1.02 3.15 2.42 4.21 4.01 2.87-7.67 4.51-15.93 4.51-24.6 0.01-8.77-1.6-17.16-4.55-24.9zM666.29 582.26c-52.91 0-95.8-42.89-95.8-95.8s42.89-95.8 95.8-95.8 95.8 42.89 95.8 95.8-42.89 95.8-95.8 95.8z m65.69-120.71c-1.05 1.56-2.42 2.94-4.16 3.94l-5.53 3.19c-6.11 3.52-13.92 1.43-17.45-4.68-3.53-6.11-1.43-13.92 4.68-17.45l5.53-3.19c1.69-0.98 3.51-1.48 5.33-1.63-10.56-12.72-25.5-21.67-42.53-24.5 0.76 1.63 1.21 3.44 1.21 5.36v6.39c0 7.05-5.72 12.77-12.77 12.77s-12.77-5.72-12.77-12.77v-6.39c0-1.92 0.45-3.72 1.21-5.36-17.03 2.83-31.97 11.78-42.53 24.5 1.82 0.15 3.64 0.66 5.33 1.63l5.53 3.19c6.11 3.53 8.2 11.34 4.68 17.45-3.53 6.11-11.34 8.2-17.45 4.68l-5.53-3.19c-1.74-1-3.11-2.38-4.16-3.94a69.985 69.985 0 0 0-4.56 24.91c0 8.69 1.58 17 4.47 24.67 1.06-1.62 2.46-3.05 4.25-4.09l5.53-3.19c6.11-3.53 13.92-1.44 17.45 4.68 3.53 6.11 1.43 13.92-4.68 17.45l-5.53 3.2c-1.78 1.02-3.7 1.52-5.62 1.63 10.62 12.97 25.76 22.1 43.04 24.91-0.89-1.74-1.44-3.68-1.44-5.77v-6.39c0-7.05 5.72-12.77 12.77-12.77 7.06 0 12.77 5.72 12.77 12.77v6.39c0 2.08-0.54 4.01-1.42 5.75 17.3-2.82 32.51-11.87 43.12-24.88-1.95-0.1-3.9-0.59-5.71-1.64l-5.53-3.2c-6.11-3.53-8.2-11.34-4.68-17.45 3.53-6.11 11.34-8.2 17.45-4.68l5.53 3.19c1.77 1.02 3.15 2.42 4.21 4.01 2.87-7.67 4.51-15.93 4.51-24.6 0.01-8.77-1.6-17.16-4.55-24.9z" fill="#E6E6E6" p-id="2703"></path></svg>